HIERARCHY
ROOT Hips
{
	OFFSET 0.00000 0.00000 0.00000
	CHANNELS 6 Xposition Yposition Zposition Zrotation Yrotation Xrotation 
	JOINT LHipJoint
	{
		OFFSET 0 0 0
		CHANNELS 3 Zrotation Yrotation Xrotation
		JOINT LeftHip
		{
			OFFSET 1.41261 -1.82971 0.84908
			CHANNELS 3 Zrotation Yrotation Xrotation
			JOINT LeftKnee
			{
				OFFSET 2.52554 -6.93888 0.00000
				CHANNELS 3 Zrotation Yrotation Xrotation
				JOINT LeftAnkle
				{
					OFFSET 2.56654 -7.05152 0.00000
					CHANNELS 3 Zrotation Yrotation Xrotation
					JOINT LeftToe
					{
						OFFSET 0.21698 -0.59616 1.85369
						CHANNELS 3 Zrotation Yrotation Xrotation
						End Site
						{
							OFFSET 0.00000 -0.00000 0.97832
						}
					}
				}
			}
		}
	}
	JOINT RHipJoint
	{
		OFFSET 0 0 0
		CHANNELS 3 Zrotation Yrotation Xrotation
		JOINT RightHip
		{
			OFFSET -1.12808 -1.82971 0.84907
			CHANNELS 3 Zrotation Yrotation Xrotation
			JOINT RightKnee
			{
				OFFSET -2.53425 -6.96280 0.00000
				CHANNELS 3 Zrotation Yrotation Xrotation
				JOINT RightAnkle
				{
					OFFSET -2.58413 -7.09983 0.00000
					CHANNELS 3 Zrotation Yrotation Xrotation
					JOINT RightToe
					{
						OFFSET -0.26437 -0.72636 1.92241
						CHANNELS 3 Zrotation Yrotation Xrotation
						End Site
						{
							OFFSET -0.00000 -0.00000 1.02667
						}
					}
				}
			}
		}
	}
	JOINT lowerback
	{
		OFFSET 0 0 0
		CHANNELS 3 Zrotation Yrotation Xrotation
		JOINT Chest
		{
			OFFSET -0.02096 2.02288 -0.14752
			CHANNELS 3 Zrotation Yrotation Xrotation
			JOINT Chest2
			{
				OFFSET 0.03477 2.03136 -0.02358
				CHANNELS 3 Zrotation Yrotation Xrotation
				JOINT lowerneck
				{
					OFFSET 0 0 0
					CHANNELS 3 Zrotation Yrotation Xrotation
					JOINT Neck
					{
						OFFSET 0.00174 1.74359 0.19336
						CHANNELS 3 Zrotation Yrotation Xrotation
						JOINT Head
						{
							OFFSET -0.03054 1.76140 -0.17751
							CHANNELS 3 Zrotation Yrotation Xrotation
							End Site
							{
								OFFSET -0.00863 1.77239 -0.08120
							}
						}
					}
				}
				JOINT LeftCollar
				{
					OFFSET 0 0 0
					CHANNELS 3 Zrotation Yrotation Xrotation
					JOINT LeftShoulder
					{
						OFFSET 3.68685 1.32687 -0.67367
CHANNELS 3 Zrotation Xrotation Yrotation
						JOINT LeftElbow
						{
OFFSET 0 -4.764680 -0.000000
CHANNELS 3 Zrotation Xrotation Yrotation
							JOINT LeftWrist
							{
OFFSET 0 -3.527120 -0.000000
CHANNELS 3 Zrotation Xrotation Yrotation
								JOINT lhand
								{
									OFFSET 0 0 0
CHANNELS 3 Zrotation Xrotation Yrotation
									JOINT LFingers
									{
OFFSET 0 -0.859560 -0.000000
CHANNELS 3 Zrotation Xrotation Yrotation
										End Site
										{
OFFSET 0 -0.693000 -0.000000
										}
									}
								}
								JOINT LThumb
								{
OFFSET 0 0.000000 0.000000
CHANNELS 3 Zrotation Xrotation Yrotation
									End Site
									{
OFFSET 0 -0.703580 0.703580
									}
								}
							}
						}
					}
				}
				JOINT RightCollar
				{
					OFFSET 0 0 0
					CHANNELS 3 Zrotation Yrotation Xrotation
					JOINT RightShoulder
					{
						OFFSET -3.31304 1.28268 -0.97357
CHANNELS 3 Zrotation Xrotation Yrotation
						JOINT RightElbow
						{
OFFSET 0 -4.905770 -0.000000
CHANNELS 3 Zrotation Xrotation Yrotation
							JOINT RightWrist
							{
OFFSET 0 -3.426920 0.000000
CHANNELS 3 Zrotation Xrotation Yrotation
								JOINT rhand
								{
									OFFSET 0 0 0
CHANNELS 3 Zrotation Xrotation Yrotation
									JOINT RFingers
									{
OFFSET 0 -0.740960 -0.000000
CHANNELS 3 Zrotation Xrotation Yrotation
										End Site
										{
OFFSET 0 -0.597380 -0.000000
										}
									}
								}
								JOINT RThumb
								{
OFFSET 0 0.000000 0.000000
CHANNELS 3 Zrotation Xrotation Yrotation
									End Site
									{
OFFSET 0 -0.606500 0.606500
									}
								}
							}
						}
					}
				}
			}
		}
	}
}
MOTION
Frames: 9
Frame Time: 0.008333333333333333
1.811000 18.044100 -30.987300 -1.987500 -0.467900 2.917400 0.000000 0.000000 0.000000 -17.555100 3.454800 1.868200 0.178600 2.722500 7.507200 0.579700 -4.594600 -13.556000 1.484000 -7.696600 -21.796400 0.000000 0.000000 0.000000 22.559800 2.202600 -0.352700 -0.809600 -5.742100 16.037900 -0.945700 -2.761400 -19.563300 -0.064200 -1.634600 4.496900 -2.034200 -0.456500 4.580200 2.036200 -0.660900 -0.557800 3.292300 -0.276700 -3.097700 -3.370000 0.115700 -11.245100 -1.691100 1.256400 22.292200 0.130400 0.129900 8.818100 -0.000000 0.000000 0.000000 -10.465600 22.534400 -11.657900 37.276100 -46.370700 16.439600 9.498500 -10.148100 4.892300 0.000000 0.000000 0.000000 -7.125000 0.000000 0.000000 -12.803200 25.005700 -6.342900 -0.000000 0.000000 0.000000 1.337200 -0.047700 7.026200 -10.703300 -17.832100 -1.683900 -14.971700 8.186700 35.194200 0.000000 0.000000 0.000000 7.125000 0.000000 -0.000000 23.338900 64.656400 -11.394900
1.810183 18.043654 -30.987746 -1.976802 -0.472209 2.927281 0.000000 0.000000 0.000000 -17.567804 3.449377 1.856834 0.178823 2.723763 7.510543 0.577248 -4.584051 -13.527472 1.501384 -7.739391 -21.925294 0.000000 0.000000 0.000000 22.547245 2.225259 -0.358197 -0.809154 -5.740466 16.033220 -0.955655 -2.761623 -19.658392 -0.049416 -1.429558 3.931624 -2.043709 -0.451003 4.586069 2.025056 -0.654585 -0.554383 3.285688 -0.273506 -3.097923 -3.280257 -0.112818 -11.509723 -2.142266 1.048684 22.658304 -0.061269 -0.017195 9.000409 0.000000 0.000000 0.000000 -10.223636 22.762620 -12.179345 37.784247 -46.699881 16.808749 9.543074 -10.496077 4.515424 0.000000 0.000000 0.000000 -7.125000 0.000000 0.000000 -12.806469 25.377895 -6.230498 0.000000 0.000000 0.000000 1.363573 -0.007583 7.047076 -10.792969 -17.970206 -1.711536 -15.366480 8.549535 35.237511 0.000000 0.000000 0.000000 7.125000 0.000000 0.000000 22.946052 64.804164 -11.271355
1.808783 18.043111 -30.988240 -1.941182 -0.476275 2.933518 0.000000 0.000000 0.000000 -17.601446 3.461248 1.840318 0.179143 2.726046 7.516850 0.575768 -4.589193 -13.509924 1.513424 -7.768969 -22.014497 0.000000 0.000000 0.000000 22.506367 2.231545 -0.368893 -0.808757 -5.739074 16.029220 -0.956962 -2.775643 -19.677989 -0.046049 -1.384445 3.807220 -2.097524 -0.456339 4.597330 2.015079 -0.665274 -0.550382 3.306622 -0.278035 -3.098874 -3.299773 -0.240675 -11.647355 -2.440985 0.960574 22.916994 -0.170206 -0.098609 9.119757 0.000000 0.000000 0.000000 -10.336410 22.734770 -11.958375 37.572958 -46.562491 16.655411 9.572151 -10.276530 4.738572 0.000000 0.000000 0.000000 -7.125000 0.000000 0.000000 -12.763974 25.156868 -6.275839 0.000000 0.000000 0.000000 1.387226 0.048614 7.124694 -10.877488 -18.100150 -1.737715 -15.527633 8.715762 35.335719 0.000000 0.000000 0.000000 7.125000 0.000000 0.000000 22.872769 64.937110 -11.304338
1.807280 18.042471 -30.988829 -1.906119 -0.487851 2.937003 0.000000 0.000000 0.000000 -17.631119 3.492611 1.820939 0.179400 2.728000 7.522323 0.576015 -4.609181 -13.512481 1.515226 -7.773393 -22.027919 0.000000 0.000000 0.000000 22.466419 2.223450 -0.383735 -0.808523 -5.738314 16.027043 -0.955546 -2.792230 -19.672774 -0.047694 -1.409055 3.875052 -2.159943 -0.472943 4.615288 2.011688 -0.691365 -0.547423 3.340486 -0.289969 -3.103391 -3.359590 -0.331776 -11.740722 -2.703650 0.921695 23.132405 -0.255622 -0.155898 9.215460 0.000000 0.000000 0.000000 -10.595426 22.624833 -11.449219 37.128778 -46.273743 16.333039 9.630467 -9.890078 5.182627 0.000000 0.000000 0.000000 -7.125000 0.000000 0.000000 -12.679262 24.716911 -6.365618 0.000000 0.000000 0.000000 1.393977 0.105819 7.235360 -10.954822 -18.218891 -1.761795 -15.496490 8.743179 35.500740 0.000000 0.000000 0.000000 7.125000 0.000000 0.000000 23.087993 65.076830 -11.491058
1.806240 18.041728 -30.989572 -1.901959 -0.516602 2.938638 0.000000 0.000000 0.000000 -17.626959 3.547214 1.801252 0.179400 2.728000 7.522397 0.578986 -4.643875 -13.547175 1.500368 -7.736991 -21.918192 0.000000 0.000000 0.000000 22.462259 2.202500 -0.401713 -0.808597 -5.738686 16.028157 -0.958295 -2.798173 -19.701599 -0.047026 -1.400141 3.850537 -2.188990 -0.501990 4.641884 2.021717 -0.731853 -0.547497 3.370648 -0.309359 -3.115054 -3.380020 -0.460002 -11.885663 -3.066633 0.851193 23.378306 -0.386596 -0.237098 9.332913 0.000000 0.000000 0.000000 -10.761168 22.635011 -11.175458 37.016971 -46.199824 16.252285 9.772957 -9.803604 5.409435 0.000000 0.000000 0.000000 -7.125000 0.000000 0.000000 -12.554082 24.490548 -6.367623 0.000000 0.000000 0.000000 1.365970 0.146159 7.352813 -11.022129 -18.322155 -1.782894 -15.310987 8.692438 35.750653 0.000000 0.000000 0.000000 7.125000 0.000000 0.000000 23.571624 65.249407 -11.837177
1.805271 18.040914 -30.992315 -1.898799 -0.585937 2.950061 0.000000 0.000000 0.000000 -17.626514 3.586741 1.775849 0.178971 2.725142 7.514397 0.581101 -4.649344 -13.572151 1.493512 -7.719952 -21.866841 0.000000 0.000000 0.000000 22.458956 2.223850 -0.431767 -0.809529 -5.741987 16.037560 -0.951683 -2.811690 -19.645610 -0.047143 -1.400943 3.852744 -2.224969 -0.541827 4.687272 2.050109 -0.786775 -0.555503 3.425175 -0.335323 -3.143938 -3.458112 -0.566220 -12.023316 -3.406252 0.819990 23.617991 -0.496564 -0.303221 9.447365 0.000000 0.000000 0.000000 -10.914906 22.732361 -11.011449 37.138956 -46.280385 16.340445 9.881006 -9.884399 5.453040 0.000000 0.000000 0.000000 -7.125000 0.000000 0.000000 -12.470917 24.445674 -6.336690 0.000000 0.000000 0.000000 1.300093 0.171208 7.537932 -11.054138 -18.371186 -1.792989 -15.178287 8.721439 35.879811 0.000000 0.000000 0.000000 7.125000 0.000000 0.000000 23.865406 65.327667 -12.035533
1.804351 18.040463 -30.994955 -1.883008 -0.642796 2.967362 0.000000 0.000000 0.000000 -17.648540 3.579881 1.759230 0.178480 2.721393 7.503973 0.581305 -4.626939 -13.574647 1.494111 -7.721476 -21.871375 0.000000 0.000000 0.000000 22.438442 2.250768 -0.466280 -0.811135 -5.747417 16.053239 -0.946347 -2.820980 -19.599471 -0.047429 -1.404831 3.863515 -2.278422 -0.587765 4.721879 2.082753 -0.850687 -0.559661 3.494530 -0.365618 -3.161704 -3.549747 -0.663604 -12.157248 -3.733598 0.801190 23.826095 -0.599064 -0.363302 9.550354 0.000000 0.000000 0.000000 -11.078871 22.812223 -10.841918 37.268398 -46.365527 16.434079 9.944551 -9.915850 5.419702 0.000000 0.000000 0.000000 -7.125000 0.000000 0.000000 -12.427158 24.477766 -6.303944 0.000000 0.000000 0.000000 1.239801 0.160976 7.653464 -11.059908 -18.380006 -1.794779 -15.110946 8.855659 35.919321 0.000000 0.000000 0.000000 7.125000 0.000000 0.000000 23.985143 65.344041 -12.107945
1.803299 18.040280 -30.997181 -1.856865 -0.679563 2.984103 0.000000 0.000000 0.000000 -17.687501 3.537593 1.753704 0.178080 2.718120 7.494899 0.580660 -4.580350 -13.567582 1.498541 -7.732523 -21.904569 0.000000 0.000000 0.000000 22.405283 2.277409 -0.498509 -0.813261 -5.754604 16.074051 -0.943661 -2.828705 -19.577710 -0.048321 -1.418135 3.900222 -2.344171 -0.635820 4.749473 2.110544 -0.918268 -0.561040 3.565984 -0.397693 -3.172125 -3.629212 -0.761511 -12.295370 -4.039821 0.775472 24.036561 -0.697985 -0.423872 9.655118 0.000000 0.000000 0.000000 -11.231246 22.876005 -10.678962 37.388985 -46.444549 16.521372 9.962545 -9.906849 5.318545 0.000000 0.000000 0.000000 -7.125000 0.000000 0.000000 -12.422837 24.577795 -6.272047 0.000000 0.000000 0.000000 1.194993 0.130328 7.694382 -11.056486 -18.374749 -1.793662 -15.044002 8.988120 35.914649 0.000000 0.000000 0.000000 7.125000 0.000000 0.000000 24.054436 65.321006 -12.132043
1.801814 18.040206 -30.998592 -1.824103 -0.685729 2.990046 0.000000 0.000000 0.000000 -17.734601 3.476749 1.762990 0.178006 2.717451 7.493042 0.580883 -4.513414 -13.571965 1.501290 -7.739283 -21.924850 0.000000 0.000000 0.000000 22.367023 2.296724 -0.517824 -0.815713 -5.763147 16.098716 -0.945369 -2.839849 -19.599626 -0.050624 -1.452383 3.994497 -2.414153 -0.680023 4.777554 2.119236 -0.981564 -0.561932 3.619696 -0.427707 -3.182600 -3.656700 -0.874284 -12.450637 -4.308009 0.712696 24.306384 -0.798426 -0.494968 9.783863 0.000000 0.000000 0.000000 -11.334139 22.931649 -10.550514 37.488683 -46.509628 16.593583 9.930080 -9.882928 5.151466 0.000000 0.000000 0.000000 -7.125000 0.000000 0.000000 -12.461543 24.743908 -6.243297 0.000000 0.000000 0.000000 1.180135 0.102989 7.655380 -11.070156 -18.395699 -1.797971 -14.871203 8.943323 35.933741 0.000000 0.000000 0.000000 7.125000 0.000000 0.000000 24.268541 65.289507 -12.228249
